<svg width="266.1" height="35.2" viewBox="0 0 266.1 35.2" xmlns="http://www.w3.org/2000/svg"><g id="svgGroup" stroke-linecap="round" fill-rule="evenodd" font-size="9pt" stroke="#000" stroke-width="0.25mm" fill="#000" style="stroke:#000;stroke-width:0.25mm;fill:#000"><path d="M 24.326 34.82 A 24.834 24.834 0 0 0 28.55 35.2 A 22.349 22.349 0 0 0 31.992 34.944 A 17.1 17.1 0 0 0 38.5 32.575 A 18.504 18.504 0 0 0 39.515 31.894 A 14.933 14.933 0 0 0 44.55 25.8 Q 46.15 22.3 46.15 18.35 Q 46.15 14.1 44.175 10.1 Q 42.2 6.1 38.25 3.7 Q 39.969 2.394 41.262 1.986 A 3.633 3.633 0 0 1 42.35 1.8 A 1.386 1.386 0 0 0 42.415 1.799 Q 42.548 1.792 42.658 1.76 A 0.631 0.631 0 0 0 43 1.525 Q 43.2 1.25 43.2 0.9 Q 43.2 0.55 43 0.275 A 0.602 0.602 0 0 0 42.853 0.132 Q 42.744 0.057 42.595 0.024 A 1.156 1.156 0 0 0 42.35 0 A 5.459 5.459 0 0 0 40.792 0.237 A 7.534 7.534 0 0 0 39.525 0.75 Q 38.05 1.5 36.55 2.8 A 16.973 16.973 0 0 0 35.425 2.334 A 19.607 19.607 0 0 0 32.725 1.55 A 18.851 18.851 0 0 0 31.123 1.276 A 22.626 22.626 0 0 0 28.25 1.1 A 52.003 52.003 0 0 0 27.178 1.111 Q 22.394 1.21 18.725 2.2 A 35.622 35.622 0 0 0 18.219 2.341 Q 14.473 3.411 11.825 5.075 A 24.963 24.963 0 0 0 11.741 5.128 Q 10.445 5.95 9.394 6.841 A 15.215 15.215 0 0 0 7.325 8.95 Q 6.527 9.951 5.961 10.94 A 11.157 11.157 0 0 0 5 13.1 Q 4.5 14.6 4.5 15.95 A 6.468 6.468 0 0 0 4.616 17.206 A 4.305 4.305 0 0 0 6.05 19.725 A 5.319 5.319 0 0 0 8.11 20.814 A 6.856 6.856 0 0 0 9.95 21.05 A 8.346 8.346 0 0 0 10.251 21.045 Q 12.223 20.973 14.475 19.975 A 13.225 13.225 0 0 0 14.641 19.9 Q 15.884 19.328 17.127 18.448 A 21.594 21.594 0 0 0 19.325 16.65 A 20.818 20.818 0 0 0 21.713 13.997 A 28.122 28.122 0 0 0 23.75 10.9 Q 23.9 10.65 23.9 10.4 A 1.054 1.054 0 0 0 23.893 10.279 A 0.734 0.734 0 0 0 23.625 9.775 A 0.96 0.96 0 0 0 23.287 9.596 A 1.179 1.179 0 0 0 22.95 9.55 Q 22.626 9.55 22.407 9.739 A 0.948 0.948 0 0 0 22.2 10 Q 20.35 13.3 18.15 15.325 Q 15.95 17.35 13.85 18.3 A 14.057 14.057 0 0 1 13.213 18.57 Q 11.489 19.25 10.05 19.25 Q 8.4 19.25 7.35 18.4 Q 6.636 17.822 6.408 16.852 A 4.368 4.368 0 0 1 6.3 15.85 A 5.049 5.049 0 0 1 6.302 15.725 A 5.54 5.54 0 0 1 6.4 14.825 A 7.957 7.957 0 0 1 6.422 14.713 Q 6.521 14.231 6.7 13.65 A 8.259 8.259 0 0 1 6.979 12.931 Q 7.286 12.234 7.749 11.5 A 16.195 16.195 0 0 1 8.725 10.125 A 11.667 11.667 0 0 1 8.994 9.796 Q 10.427 8.105 12.775 6.6 A 16.184 16.184 0 0 1 13.34 6.254 Q 15.759 4.84 19.175 3.925 Q 21.446 3.316 24.22 3.069 A 45.473 45.473 0 0 1 28.25 2.9 Q 30.2 2.9 31.9 3.225 A 19.174 19.174 0 0 1 32.322 3.311 A 17.158 17.158 0 0 1 35.1 4.15 A 38.765 38.765 0 0 0 33.219 6.078 A 49.41 49.41 0 0 0 30.8 8.95 Q 28.65 11.7 26.525 14.7 Q 24.4 17.7 22.35 20.6 Q 20.3 23.5 18.4 25.9 A 43.086 43.086 0 0 1 17.566 26.922 Q 16.882 27.734 16.232 28.415 A 21.93 21.93 0 0 1 14.85 29.75 L 13.75 29.25 Q 13.2 29 12.7 28.75 Q 10.95 27.95 8.95 27 A 10.765 10.765 0 0 0 7.587 26.459 A 8.361 8.361 0 0 0 5.05 26.05 A 6.479 6.479 0 0 0 3.872 26.152 A 4.448 4.448 0 0 0 1.35 27.5 A 5.93 5.93 0 0 0 0.757 28.244 A 4.256 4.256 0 0 0 0 30.65 A 3.774 3.774 0 0 0 0.524 32.572 A 5.104 5.104 0 0 0 1.375 33.65 A 4.067 4.067 0 0 0 2.766 34.523 Q 3.41 34.774 4.217 34.893 A 10.9 10.9 0 0 0 5.8 35 A 13.386 13.386 0 0 0 8.058 34.802 A 16.994 16.994 0 0 0 10.75 34.1 A 18.901 18.901 0 0 0 13.012 33.157 A 13.909 13.909 0 0 0 15.15 31.85 Q 16.55 32.45 17.95 33 Q 19.35 33.55 20.8 34 A 32.797 32.797 0 0 0 24.326 34.82 Z M 21.35 32.3 A 27.817 27.817 0 0 0 25.569 33.204 A 22.588 22.588 0 0 0 28.5 33.4 A 20.098 20.098 0 0 0 32.725 32.977 A 14.665 14.665 0 0 0 37.575 31.025 A 15.092 15.092 0 0 0 40.988 28.094 A 13.035 13.035 0 0 0 42.95 25 Q 44.4 21.85 44.4 18.35 Q 44.4 14.4 42.5 10.725 Q 40.6 7.05 36.8 4.95 Q 35.25 6.3 33.675 8.15 A 51.426 51.426 0 0 0 31.165 11.354 A 57.681 57.681 0 0 0 30.6 12.15 Q 29.5 13.75 27.8 16.175 Q 26.1 18.6 24.15 21.325 A 114.68 114.68 0 0 1 20.718 25.883 A 104.352 104.352 0 0 1 20.225 26.5 A 69.525 69.525 0 0 1 18.796 28.218 Q 18.08 29.051 17.421 29.753 A 34.778 34.778 0 0 1 16.65 30.55 Q 17.8 31.05 18.975 31.5 Q 20.15 31.95 21.35 32.3 Z M 2.592 32.251 A 4.103 4.103 0 0 0 2.725 32.375 A 2.716 2.716 0 0 0 3.584 32.878 Q 4.352 33.168 5.493 33.197 A 10.144 10.144 0 0 0 5.75 33.2 A 12.28 12.28 0 0 0 7.854 33.01 A 15.951 15.951 0 0 0 9.6 32.6 A 15.676 15.676 0 0 0 11.959 31.707 A 13.046 13.046 0 0 0 13.25 31 L 10.85 29.9 Q 9.65 29.35 8.4 28.8 Q 7.65 28.45 7.1 28.225 A 5.547 5.547 0 0 0 6.724 28.086 Q 6.406 27.982 6.15 27.95 A 1.375 1.375 0 0 0 5.775 27.856 A 1.256 1.256 0 0 0 5.65 27.85 L 5.15 27.85 Q 3.6 27.85 2.7 28.725 A 3.528 3.528 0 0 0 2.188 29.341 Q 1.861 29.85 1.809 30.396 A 2.188 2.188 0 0 0 1.8 30.6 Q 1.8 31.479 2.592 32.251 Z" id="0" vector-effect="non-scaling-stroke"/><path d="M 52.75 33.1 Q 51.2 33.1 50.125 32.15 Q 49.089 31.235 49.051 29.02 A 9.943 9.943 0 0 1 49.05 28.85 Q 49.05 27.607 49.548 26.033 A 16.427 16.427 0 0 1 49.875 25.1 A 19.634 19.634 0 0 1 51.843 21.306 A 21.999 21.999 0 0 1 52.1 20.925 A 16.386 16.386 0 0 1 53.844 18.792 A 13.442 13.442 0 0 1 55.2 17.575 A 7.072 7.072 0 0 1 56.535 16.742 A 4.932 4.932 0 0 1 58.65 16.25 A 2.538 2.538 0 0 1 59.358 16.343 A 1.826 1.826 0 0 1 60.375 17.075 A 3.186 3.186 0 0 1 60.914 18.491 A 4.156 4.156 0 0 1 60.95 19.05 A 5.45 5.45 0 0 1 60.332 21.542 A 7.088 7.088 0 0 1 59.85 22.35 Q 58.75 23.95 57.075 24.95 Q 55.4 25.95 53.75 25.95 A 3.422 3.422 0 0 1 52.934 25.859 A 2.243 2.243 0 0 1 51.7 25.1 Q 51.3 26.1 51.05 27.05 A 7.803 7.803 0 0 0 50.848 28.087 A 6.279 6.279 0 0 0 50.8 28.85 A 5.274 5.274 0 0 0 50.843 29.554 Q 50.965 30.452 51.425 30.875 A 2.156 2.156 0 0 0 52.683 31.433 A 2.884 2.884 0 0 0 53 31.45 A 5.271 5.271 0 0 0 54.099 31.327 Q 54.611 31.218 55.167 31.012 A 10.003 10.003 0 0 0 55.575 30.85 Q 57 30.25 58.25 29.425 A 29.163 29.163 0 0 0 58.834 29.03 Q 59.459 28.595 59.869 28.252 A 6.897 6.897 0 0 0 60.1 28.05 Q 61.1 27.2 62.025 26.175 A 39.976 39.976 0 0 0 62.894 25.181 A 30.01 30.01 0 0 0 63.65 24.25 A 1.05 1.05 0 0 1 63.811 24.092 Q 63.994 23.95 64.2 23.95 A 0.617 0.617 0 0 1 64.612 24.108 A 0.925 0.925 0 0 1 64.725 24.225 A 0.99 0.99 0 0 1 64.941 24.749 A 1.303 1.303 0 0 1 64.95 24.9 A 1.061 1.061 0 0 1 64.857 25.327 A 1.507 1.507 0 0 1 64.7 25.6 Q 64.088 26.366 63.255 27.292 A 61.215 61.215 0 0 1 62.725 27.875 Q 61.55 29.15 60.1 30.25 Q 59.445 30.783 58.487 31.315 A 17.694 17.694 0 0 1 58.05 31.55 Q 56.8 32.2 55.425 32.65 A 9.091 9.091 0 0 1 53.673 33.044 A 7.791 7.791 0 0 1 52.75 33.1 Z M 53.65 24.35 A 3.597 3.597 0 0 0 54.626 24.207 Q 55.048 24.088 55.497 23.871 A 6.921 6.921 0 0 0 55.825 23.7 A 7.618 7.618 0 0 0 57.867 22.042 A 8.568 8.568 0 0 0 57.925 21.975 Q 58.85 20.9 59.15 19.65 A 0.441 0.441 0 0 0 59.186 19.545 Q 59.2 19.48 59.2 19.4 L 59.2 19.15 A 1.835 1.835 0 0 0 59.174 18.827 Q 59.073 18.264 58.575 18.25 A 0.912 0.912 0 0 0 58.55 18.25 A 3.237 3.237 0 0 0 57.449 18.453 Q 57.029 18.604 56.595 18.868 A 6.177 6.177 0 0 0 56.35 19.025 Q 55.2 19.8 54.175 21.075 Q 53.15 22.35 52.35 23.85 A 5.751 5.751 0 0 0 52.725 24.109 A 5.278 5.278 0 0 0 52.75 24.125 Q 52.95 24.25 53.15 24.3 A 0.441 0.441 0 0 0 53.255 24.336 Q 53.32 24.35 53.4 24.35 L 53.65 24.35 Z" id="1" vector-effect="non-scaling-stroke"/><path d="M 92.104 24.251 A 0.599 0.599 0 0 0 91.829 24.338 A 0.703 0.703 0 0 0 91.65 24.5 A 0.014 0.014 0 0 0 91.648 24.5 Q 91.599 24.507 91.275 24.845 A 17.551 17.551 0 0 0 91.175 24.95 L 90.325 25.85 A 361.663 361.663 0 0 1 90.278 25.899 Q 89.897 26.303 89.85 26.35 A 37.446 37.446 0 0 1 89.378 26.846 Q 89.125 27.107 88.838 27.395 A 75.743 75.743 0 0 1 88.1 28.125 A 12.106 12.106 0 0 1 87.535 28.643 A 10.243 10.243 0 0 1 85.9 29.8 A 8.996 8.996 0 0 1 85.462 30.006 Q 85.025 30.195 84.711 30.263 A 1.498 1.498 0 0 1 84.4 30.3 Q 83.8 30.3 83.8 29.6 Q 83.8 29.2 83.975 28.65 Q 84.15 28.1 84.35 27.55 L 86.35 22.65 Q 86.75 21.75 86.9 21.05 Q 87.05 20.35 87.05 19.9 A 2.365 2.365 0 0 0 87.048 19.794 Q 87.003 18.8 86.1 18.8 A 1.448 1.448 0 0 0 86.052 18.801 Q 85.197 18.829 83.35 19.85 A 20.619 20.619 0 0 0 82.831 20.16 Q 82.247 20.52 81.608 20.963 A 38.367 38.367 0 0 0 80.45 21.8 A 20.177 20.177 0 0 0 79.158 22.858 A 24.892 24.892 0 0 0 77.3 24.7 A 34.388 34.388 0 0 0 77.325 24.609 A 31.545 31.545 0 0 0 77.95 21.85 Q 78.2 20.45 78.2 19.2 Q 78.2 17.4 77.55 16.65 A 2.16 2.16 0 0 0 76.838 16.099 A 2.171 2.171 0 0 0 75.9 15.9 A 3.259 3.259 0 0 0 75.503 15.925 Q 75.058 15.979 74.582 16.154 A 6.134 6.134 0 0 0 73.725 16.55 Q 72.55 17.2 71.6 18.2 A 19.677 19.677 0 0 0 71.304 18.537 Q 71.149 18.718 70.979 18.923 A 39.672 39.672 0 0 0 70.55 19.45 Q 69.95 20.2 69.25 21.15 Q 69.3 20.8 69.325 20.45 A 10.296 10.296 0 0 0 69.344 20.113 A 8.141 8.141 0 0 0 69.35 19.8 A 6.518 6.518 0 0 0 69.317 19.13 A 4.869 4.869 0 0 0 69.2 18.45 Q 69.066 17.913 68.706 17.736 A 0.911 0.911 0 0 0 68.3 17.65 A 1.213 1.213 0 0 0 67.718 17.799 A 1.623 1.623 0 0 0 67.375 18.05 A 1.298 1.298 0 0 0 67.005 18.686 A 1.856 1.856 0 0 0 66.95 19.15 Q 66.95 19.5 67.025 19.8 A 2.39 2.39 0 0 1 67.071 20.032 A 2.872 2.872 0 0 1 67.1 20.45 Q 67.1 21.024 66.973 21.658 A 8.729 8.729 0 0 1 66.675 22.75 Q 66.383 23.609 65.819 24.776 A 36.976 36.976 0 0 1 65.25 25.9 Q 64.906 26.588 64.426 27.451 A 69.704 69.704 0 0 1 63.8 28.55 Q 63.238 29.519 62.636 30.722 A 60.05 60.05 0 0 0 61.9 32.25 A 1.088 1.088 0 0 0 61.882 32.288 A 0.955 0.955 0 0 0 61.825 32.45 Q 61.8 32.55 61.8 32.65 A 0.666 0.666 0 0 0 61.817 32.801 Q 61.877 33.061 62.15 33.275 A 1.491 1.491 0 0 0 62.272 33.361 A 1.153 1.153 0 0 0 62.9 33.55 A 1.269 1.269 0 0 0 63.251 33.5 A 1.583 1.583 0 0 0 63.6 33.35 A 1.001 1.001 0 0 0 63.751 33.244 Q 63.887 33.129 63.995 32.958 A 1.877 1.877 0 0 0 64.15 32.65 Q 64.744 31.306 65.298 30.226 A 28.354 28.354 0 0 1 65.95 29.025 Q 66.8 27.55 67.45 26.2 L 67.65 25.8 A 105.551 105.551 0 0 1 68.398 24.814 A 93.677 93.677 0 0 1 70.625 22.025 A 123.486 123.486 0 0 1 71.279 21.244 Q 71.958 20.44 72.458 19.883 A 26.93 26.93 0 0 1 72.9 19.4 A 11.026 11.026 0 0 1 73.35 18.942 A 9.07 9.07 0 0 1 74.225 18.2 A 4.547 4.547 0 0 1 74.296 18.148 Q 74.927 17.7 75.4 17.7 Q 76.092 17.7 76.221 18.795 A 4.795 4.795 0 0 1 76.25 19.35 A 13.739 13.739 0 0 1 76.241 19.841 Q 76.166 21.951 75.45 24.5 A 39.138 39.138 0 0 1 74.835 26.483 A 46.801 46.801 0 0 1 73.3 30.4 Q 73.1 30.9 73.4 31.25 Q 73.7 31.6 74.1 31.6 A 1.186 1.186 0 0 0 74.324 31.58 Q 74.545 31.537 74.694 31.405 A 0.797 0.797 0 0 0 74.9 31.1 Q 75.2 30.45 75.475 29.825 Q 75.75 29.2 76 28.55 Q 77.193 27.027 78.4 25.806 A 22.293 22.293 0 0 1 80.75 23.725 A 57.481 57.481 0 0 1 81.845 22.912 Q 82.732 22.27 83.535 21.747 A 28.016 28.016 0 0 1 85 20.85 Q 84.8 21.6 84.3 22.85 A 285.23 285.23 0 0 1 83.781 24.138 A 339.919 339.919 0 0 1 83.225 25.5 A 63.894 63.894 0 0 0 82.878 26.363 A 54.02 54.02 0 0 0 82.2 28.175 Q 81.891 29.052 81.747 29.704 A 6.01 6.01 0 0 0 81.65 30.25 A 6.338 6.338 0 0 0 81.64 30.421 Q 81.604 31.227 81.803 31.7 A 1.128 1.128 0 0 0 82.1 32.125 A 1.892 1.892 0 0 0 82.927 32.534 A 2.773 2.773 0 0 0 83.55 32.6 A 3.291 3.291 0 0 0 84.151 32.543 Q 84.96 32.392 85.9 31.85 A 24.917 24.917 0 0 0 86.84 31.281 A 20.547 20.547 0 0 0 88.25 30.3 Q 89.25 29.5 90.525 28.25 A 31.457 31.457 0 0 0 90.927 27.849 A 24.602 24.602 0 0 0 90.976 27.799" id="2" vector-effect="non-scaling-stroke"/><path d="M 92.104 24.251 A 8.22 8.22 0 0 1 92.799 21.274 A 9.988 9.988 0 0 1 93.175 20.5 Q 94.2 18.6 95.975 17.35 Q 97.75 16.1 100.15 16.1 A 6.383 6.383 0 0 1 101.329 16.201 Q 101.973 16.322 102.463 16.589 A 2.727 2.727 0 0 1 103.425 17.45 A 5.272 5.272 0 0 1 104.303 19.837 A 6.78 6.78 0 0 1 104.35 20.65 Q 104.35 21.75 104.1 22.875 A 13.909 13.909 0 0 1 103.548 24.748 A 12.628 12.628 0 0 1 103.45 25 A 14.612 14.612 0 0 1 102.742 26.506 A 16.959 16.959 0 0 1 102.45 27.025 Q 101.85 28.05 101.1 29.05 Q 102.6 28.8 103.725 28.075 A 9.123 9.123 0 0 0 104.785 27.269 Q 105.389 26.741 106 26.05 Q 106.791 25.156 107.77 23.932 A 97.63 97.63 0 0 0 108.7 22.75 A 1.269 1.269 0 0 1 108.892 22.565 Q 109.109 22.4 109.35 22.4 A 1.059 1.059 0 0 1 109.708 22.459 A 0.934 0.934 0 0 1 110.025 22.65 A 0.827 0.827 0 0 1 110.299 23.248 A 1.122 1.122 0 0 1 110.3 23.3 A 0.853 0.853 0 0 1 110.121 23.823 A 1.07 1.07 0 0 1 110.1 23.85 A 42.527 42.527 0 0 1 108.278 26.194 A 35.147 35.147 0 0 1 107.175 27.45 A 11.198 11.198 0 0 1 104.194 29.775 A 10.651 10.651 0 0 1 103.85 29.95 A 8.554 8.554 0 0 1 101.69 30.649 Q 100.728 30.831 99.629 30.848 A 14.737 14.737 0 0 1 99.4 30.85 Q 98.2 31.9 96.8 32.55 Q 95.4 33.2 93.85 33.2 A 4.633 4.633 0 0 1 92.974 33.123 Q 92.496 33.031 92.131 32.828 A 2.059 2.059 0 0 1 91.45 32.225 A 3.649 3.649 0 0 1 90.84 30.781 A 5.08 5.08 0 0 1 90.75 29.8 A 8.891 8.891 0 0 1 90.844 28.544 A 12.068 12.068 0 0 1 90.976 27.799 M 96.75 20.25 A 2.938 2.938 0 0 0 96.395 20.572 Q 96.045 20.939 95.625 21.553 A 16.011 16.011 0 0 0 95.3 22.05 Q 94.45 23.4 93.75 25 A 4.237 4.237 0 0 0 94.764 27.483 A 5.471 5.471 0 0 0 95.025 27.775 Q 96.2 29 98.65 29.15 Q 100.45 27.4 101.55 25.025 A 14.15 14.15 0 0 0 102.22 23.311 Q 102.65 21.938 102.65 20.75 Q 102.65 19.45 102.05 18.65 Q 101.484 17.896 100.297 17.853 A 4.034 4.034 0 0 0 100.15 17.85 Q 99.25 17.85 98.4 18.15 Q 97.55 18.45 96.85 18.95 Q 97.1 19.2 97.1 19.55 Q 97.1 19.95 96.75 20.25 Z M 92.5 29.7 A 3.198 3.198 0 0 0 92.538 30.212 Q 92.612 30.663 92.825 30.975 Q 93.15 31.45 93.85 31.45 A 5.124 5.124 0 0 0 95.659 31.107 A 7.003 7.003 0 0 0 96.8 30.55 Q 95.35 30.2 94.35 29.425 A 6.131 6.131 0 0 1 93.281 28.376 A 5.296 5.296 0 0 1 92.8 27.65 A 12.292 12.292 0 0 0 92.62 28.484 Q 92.5 29.162 92.5 29.7 Z" id="3" vector-effect="non-scaling-stroke"/><path d="M 140.237 35.09 A 4.793 4.793 0 0 0 141.3 35.2 Q 142.538 35.2 143.905 34.456 A 10.099 10.099 0 0 0 145.175 33.625 Q 146.245 32.813 147.321 31.768 A 32.413 32.413 0 0 0 149.35 29.6 Q 151.45 27.15 153.2 24.55 Q 153 25.65 152.85 26.7 A 15.809 15.809 0 0 0 152.832 26.831 A 14.408 14.408 0 0 0 152.7 28.75 A 10.746 10.746 0 0 0 152.701 28.914 Q 152.713 29.703 152.842 30.394 A 6.259 6.259 0 0 0 153.325 31.925 A 2.901 2.901 0 0 0 154.619 33.271 A 4.23 4.23 0 0 0 155.65 33.65 Q 156.1 33.75 156.575 33.8 A 9.634 9.634 0 0 0 156.634 33.806 A 8.787 8.787 0 0 0 157.5 33.85 A 10.091 10.091 0 0 0 160.781 33.289 A 13.188 13.188 0 0 0 163.5 31.975 A 20.521 20.521 0 0 0 166.044 30.09 A 25.305 25.305 0 0 0 169.075 26.95 Q 171.65 23.8 173.25 20 Q 173.8 18.6 174.125 17.2 A 13.426 13.426 0 0 0 174.323 16.171 A 10.848 10.848 0 0 0 174.45 14.55 A 11.323 11.323 0 0 0 174.32 12.802 A 8.514 8.514 0 0 0 173.6 10.425 A 8.363 8.363 0 0 0 173.138 9.584 A 6.653 6.653 0 0 0 171.325 7.65 Q 169.9 6.65 168.2 6.65 Q 167.7 6.65 167.125 6.75 Q 166.55 6.85 166 7.1 Q 165.45 7.3 165.45 7.85 A 0.993 0.993 0 0 0 165.534 8.246 A 1.305 1.305 0 0 0 165.7 8.525 A 0.99 0.99 0 0 0 165.761 8.597 A 0.773 0.773 0 0 0 166.35 8.85 Q 166.488 8.85 166.578 8.826 A 0.373 0.373 0 0 0 166.65 8.8 Q 166.95 8.65 167.275 8.6 A 4.095 4.095 0 0 1 167.336 8.591 A 4.474 4.474 0 0 1 167.95 8.55 Q 169.05 8.55 170.125 9.2 A 4.568 4.568 0 0 1 171.175 10.082 A 5.985 5.985 0 0 1 171.925 11.15 Q 172.378 11.963 172.548 13.029 A 8.721 8.721 0 0 1 172.65 14.4 A 11.485 11.485 0 0 1 172.618 15.243 A 13.828 13.828 0 0 1 172.425 16.725 A 7.565 7.565 0 0 1 172.372 16.986 Q 172.247 17.557 172.022 18.174 A 13.28 13.28 0 0 1 171.5 19.4 Q 170.3 22.2 168.6 24.575 A 29.397 29.397 0 0 1 167.516 25.998 A 24.599 24.599 0 0 1 164.975 28.7 Q 163.05 30.45 161.2 31.4 A 11.429 11.429 0 0 1 160.529 31.718 Q 159.854 32.011 159.229 32.168 A 5.659 5.659 0 0 1 157.85 32.35 A 3.707 3.707 0 0 1 157.677 32.346 A 2.981 2.981 0 0 1 155.525 31.325 A 3.099 3.099 0 0 1 154.928 30.303 Q 154.6 29.41 154.6 28.1 Q 154.6 26.3 155.35 23.575 Q 155.819 21.872 156.58 19.866 A 64.817 64.817 0 0 1 157.6 17.35 A 35.98 35.98 0 0 1 157.794 16.875 A 26.284 26.284 0 0 1 157.975 16.45 A 9.086 9.086 0 0 0 158.052 16.269 Q 158.126 16.09 158.167 15.963 A 1.711 1.711 0 0 0 158.2 15.85 A 1.671 1.671 0 0 0 158.216 15.803 Q 158.387 15.286 158.1 14.975 A 1.241 1.241 0 0 0 158.023 14.899 A 0.9 0.9 0 0 0 157.4 14.65 A 1.202 1.202 0 0 0 157.386 14.65 Q 157.034 14.654 156.786 14.865 A 1.136 1.136 0 0 0 156.55 15.15 A 3.264 3.264 0 0 0 156.444 15.343 Q 156.34 15.546 156.225 15.825 Q 156.05 16.25 155.85 16.65 A 39.147 39.147 0 0 1 155.774 16.791 Q 155.038 18.152 153.85 20.1 A 71.957 71.957 0 0 1 152.867 21.666 A 88.122 88.122 0 0 1 151.025 24.4 Q 149.45 26.65 147.75 28.625 A 35.051 35.051 0 0 1 147.643 28.749 Q 145.999 30.641 144.425 31.9 A 9.915 9.915 0 0 1 143.563 32.521 Q 143.039 32.855 142.547 33.057 A 4.072 4.072 0 0 1 141.45 33.35 A 2.823 2.823 0 0 1 141.38 33.345 A 2.205 2.205 0 0 1 139.95 32.7 Q 139.514 32.264 139.395 31.406 A 5.147 5.147 0 0 1 139.35 30.7 Q 139.35 29.394 139.882 27.627 A 22.412 22.412 0 0 1 140.475 25.925 Q 141.125 24.263 142.118 22.392 A 52.19 52.19 0 0 1 143.75 19.55 A 61.033 61.033 0 0 0 145.04 17.354 Q 145.799 15.995 146.378 14.769 A 27.297 27.297 0 0 0 147.4 12.325 A 24.787 24.787 0 0 0 147.861 10.908 Q 148.173 9.839 148.332 8.884 A 11.466 11.466 0 0 0 148.5 7 Q 148.5 4.75 147.575 3.375 Q 146.65 2 145.125 1.35 A 7.844 7.844 0 0 0 144.145 1.007 A 8.736 8.736 0 0 0 141.8 0.7 A 20.892 20.892 0 0 0 140.826 0.723 A 17.966 17.966 0 0 0 134.925 1.975 Q 131.75 3.25 129.25 5.375 Q 126.75 7.5 124.975 10.075 A 24.675 24.675 0 0 0 124.141 11.369 A 21.009 21.009 0 0 0 122.275 15.325 A 18.151 18.151 0 0 0 121.611 17.75 A 13.216 13.216 0 0 0 121.35 20.3 A 9.176 9.176 0 0 0 121.487 21.918 A 6.657 6.657 0 0 0 122.825 24.95 A 4.368 4.368 0 0 0 123.951 25.948 Q 124.726 26.427 125.752 26.637 A 8.742 8.742 0 0 0 127.5 26.8 A 10.825 10.825 0 0 0 127.578 26.8 A 9.263 9.263 0 0 0 132.075 25.65 Q 134.15 24.5 135.675 22.7 A 16.511 16.511 0 0 0 136.046 22.247 A 14.515 14.515 0 0 0 138.05 18.875 A 14.067 14.067 0 0 0 138.103 18.747 Q 138.9 16.795 138.9 15.1 Q 138.9 13.35 137.975 12.2 A 2.713 2.713 0 0 0 137.202 11.543 Q 136.727 11.271 136.105 11.149 A 5.757 5.757 0 0 0 135 11.05 A 1.054 1.054 0 0 0 134.879 11.057 A 0.734 0.734 0 0 0 134.375 11.325 Q 134.15 11.6 134.15 11.95 Q 134.15 12.3 134.375 12.575 A 0.715 0.715 0 0 0 134.726 12.812 A 0.932 0.932 0 0 0 135 12.85 Q 135.43 12.85 135.764 12.953 A 1.496 1.496 0 0 1 136.575 13.525 A 2.521 2.521 0 0 1 136.969 14.428 A 3.481 3.481 0 0 1 137.05 15.2 A 5.339 5.339 0 0 1 137.029 15.672 Q 136.926 16.833 136.325 18.2 A 12.041 12.041 0 0 1 135.7 19.423 A 14.272 14.272 0 0 1 134.3 21.4 Q 133 22.95 131.275 23.95 Q 129.55 24.95 127.5 24.95 Q 125.3 24.95 124.25 23.625 Q 123.2 22.3 123.2 20.15 Q 123.2 18.15 124.05 15.8 A 18.514 18.514 0 0 1 124.793 14.041 A 22.169 22.169 0 0 1 126.5 11.125 A 20.332 20.332 0 0 1 126.964 10.479 A 22.135 22.135 0 0 1 130.4 6.85 Q 132.7 4.9 135.575 3.725 A 15.291 15.291 0 0 1 137.136 3.184 A 16.801 16.801 0 0 1 141.8 2.55 A 6.194 6.194 0 0 1 142.666 2.612 A 7.416 7.416 0 0 1 143.975 2.925 Q 145.1 3.3 145.875 4.275 A 3.048 3.048 0 0 1 146.317 5.05 Q 146.492 5.489 146.575 6.032 A 7.073 7.073 0 0 1 146.65 7.1 A 6.771 6.771 0 0 1 146.649 7.183 Q 146.628 8.963 145.675 11.675 A 18.03 18.03 0 0 1 145.583 11.931 Q 144.912 13.751 143.614 16.117 A 62.024 62.024 0 0 1 142.2 18.55 A 48.227 48.227 0 0 0 141.908 19.012 Q 139.826 22.355 138.75 25.325 A 25.336 25.336 0 0 0 138.292 26.707 Q 137.6 29.027 137.6 30.85 A 6.579 6.579 0 0 0 137.723 32.153 A 4.724 4.724 0 0 0 138.475 33.95 A 2.71 2.71 0 0 0 139.024 34.532 Q 139.529 34.929 140.237 35.09 Z" id="5" vector-effect="non-scaling-stroke"/><path d="M 192.725 24.047 A 0.672 0.672 0 0 0 192.661 24.092 A 1.05 1.05 0 0 0 192.5 24.25 A 30.01 30.01 0 0 1 191.744 25.181 A 39.976 39.976 0 0 1 190.875 26.175 Q 189.95 27.2 188.95 28.05 A 6.897 6.897 0 0 1 188.719 28.252 Q 188.309 28.595 187.684 29.03 A 29.163 29.163 0 0 1 187.1 29.425 Q 185.85 30.25 184.425 30.85 A 10.003 10.003 0 0 1 184.017 31.012 Q 183.461 31.218 182.949 31.327 A 5.271 5.271 0 0 1 181.85 31.45 A 2.884 2.884 0 0 1 181.533 31.433 A 2.156 2.156 0 0 1 180.275 30.875 Q 179.815 30.452 179.693 29.554 A 5.274 5.274 0 0 1 179.65 28.85 A 6.279 6.279 0 0 1 179.698 28.087 A 7.803 7.803 0 0 1 179.9 27.05 Q 180.15 26.1 180.55 25.1 A 2.243 2.243 0 0 0 181.784 25.859 A 3.422 3.422 0 0 0 182.6 25.95 Q 184.25 25.95 185.925 24.95 Q 187.6 23.95 188.7 22.35 A 7.088 7.088 0 0 0 189.182 21.542 A 5.45 5.45 0 0 0 189.8 19.05 A 4.156 4.156 0 0 0 189.764 18.491 A 3.186 3.186 0 0 0 189.225 17.075 A 1.826 1.826 0 0 0 188.208 16.343 A 2.538 2.538 0 0 0 187.5 16.25 A 4.932 4.932 0 0 0 185.385 16.742 A 7.072 7.072 0 0 0 184.05 17.575 A 13.442 13.442 0 0 0 182.694 18.792 A 16.386 16.386 0 0 0 180.95 20.925 A 21.999 21.999 0 0 0 180.693 21.306 A 19.634 19.634 0 0 0 178.725 25.1 A 16.427 16.427 0 0 0 178.398 26.033 Q 177.9 27.607 177.9 28.85 A 9.943 9.943 0 0 0 177.901 29.02 Q 177.939 31.235 178.975 32.15 Q 180.05 33.1 181.6 33.1 A 7.791 7.791 0 0 0 182.523 33.044 A 9.091 9.091 0 0 0 184.275 32.65 Q 185.65 32.2 186.9 31.55 A 17.694 17.694 0 0 0 187.337 31.315 Q 188.295 30.783 188.95 30.25 A 19.973 19.973 0 0 0 191.327 28.138 M 182.5 24.35 A 3.597 3.597 0 0 0 183.476 24.207 Q 183.898 24.088 184.347 23.871 A 6.921 6.921 0 0 0 184.675 23.7 A 7.618 7.618 0 0 0 186.717 22.042 A 8.568 8.568 0 0 0 186.775 21.975 Q 187.7 20.9 188 19.65 A 0.441 0.441 0 0 0 188.036 19.545 Q 188.05 19.48 188.05 19.4 L 188.05 19.15 A 1.835 1.835 0 0 0 188.024 18.827 Q 187.923 18.264 187.425 18.25 A 0.912 0.912 0 0 0 187.4 18.25 A 3.237 3.237 0 0 0 186.299 18.453 Q 185.879 18.604 185.445 18.868 A 6.177 6.177 0 0 0 185.2 19.025 Q 184.05 19.8 183.025 21.075 Q 182 22.35 181.2 23.85 A 5.751 5.751 0 0 0 181.575 24.109 A 5.278 5.278 0 0 0 181.6 24.125 Q 181.8 24.25 182 24.3 A 0.441 0.441 0 0 0 182.105 24.336 Q 182.17 24.35 182.25 24.35 L 182.5 24.35 Z" id="6" vector-effect="non-scaling-stroke"/><path d="M 192.725 24.047 A 26.494 26.494 0 0 1 193.35 22.75 Q 194.75 20.05 196.425 16.95 A 58.186 58.186 0 0 1 198.763 13.016 A 69.905 69.905 0 0 1 200.4 10.6 A 238.722 238.722 0 0 1 201.008 9.753 Q 201.553 8.997 202.225 8.075 A 28.609 28.609 0 0 1 204.006 5.877 A 32.825 32.825 0 0 1 204.675 5.15 Q 206.05 3.7 207.65 2.725 A 6.753 6.753 0 0 1 209.482 1.937 A 5.864 5.864 0 0 1 210.95 1.75 A 5.143 5.143 0 0 1 211.636 1.792 Q 212.503 1.909 212.925 2.35 A 2.018 2.018 0 0 1 213.444 3.364 A 2.911 2.911 0 0 1 213.5 3.95 A 4.896 4.896 0 0 1 213.426 4.771 Q 213.358 5.169 213.228 5.608 A 9.825 9.825 0 0 1 213.05 6.15 A 16.23 16.23 0 0 1 212.41 7.67 A 20.357 20.357 0 0 1 211.85 8.75 Q 210.75 10.75 208.825 13.075 A 50.664 50.664 0 0 1 205.67 16.534 A 58.162 58.162 0 0 1 204.5 17.675 Q 202.1 19.95 199.55 21.775 A 28.404 28.404 0 0 1 197.203 23.294 Q 195.939 24.022 194.728 24.518 A 17.541 17.541 0 0 1 194.65 24.55 A 21.329 21.329 0 0 0 193.945 26.323 A 17.661 17.661 0 0 0 193.625 27.35 Q 193.25 28.7 193.25 29.65 Q 193.25 31.168 194.35 31.289 A 1.82 1.82 0 0 0 194.55 31.3 A 4.733 4.733 0 0 0 197.072 30.56 A 6.3 6.3 0 0 0 197.75 30.075 A 11.131 11.131 0 0 0 199.674 28.031 A 13.57 13.57 0 0 0 200.375 26.975 Q 201.5 25.1 202 23.25 A 1.445 1.445 0 0 1 201.879 22.913 A 1.225 1.225 0 0 1 201.85 22.65 A 1.376 1.376 0 0 1 202.237 21.689 A 1.865 1.865 0 0 1 202.325 21.6 A 2.002 2.002 0 0 1 202.647 21.348 Q 202.863 21.215 203.083 21.171 A 1.112 1.112 0 0 1 203.3 21.15 A 0.924 0.924 0 0 1 203.949 21.414 A 1.347 1.347 0 0 1 204.075 21.55 A 0.943 0.943 0 0 1 204.231 21.843 Q 204.347 22.181 204.318 22.723 A 4.963 4.963 0 0 1 204.3 22.95 Q 204.6 23.15 204.8 23.15 Q 204.95 23.2 205.1 23.225 Q 205.25 23.25 205.4 23.25 A 3.876 3.876 0 0 0 207.185 22.806 A 4.879 4.879 0 0 0 207.625 22.55 A 34.808 34.808 0 0 0 208.12 22.222 Q 208.785 21.773 209.087 21.512 A 3.236 3.236 0 0 0 209.1 21.5 A 2.889 2.889 0 0 1 209.397 21.261 Q 209.751 21.017 210.058 21.001 A 0.824 0.824 0 0 1 210.1 21 A 0.648 0.648 0 0 1 210.307 21.03 Q 210.6 21.129 210.6 21.55 A 1.296 1.296 0 0 1 210.554 21.883 Q 210.515 22.027 210.445 22.182 A 2.577 2.577 0 0 1 210.375 22.325 A 2.36 2.36 0 0 1 210.166 22.647 Q 210.047 22.804 209.889 22.969 A 5.703 5.703 0 0 1 209.6 23.25 Q 207.75 24.95 204.9 24.95 A 3.708 3.708 0 0 1 204.519 24.931 A 2.819 2.819 0 0 1 204.175 24.875 A 6.838 6.838 0 0 1 203.551 24.7 A 16.329 16.329 0 0 1 202.362 27.259 A 19.943 19.943 0 0 1 201.525 28.6 A 12.762 12.762 0 0 1 199.058 31.323 A 11.819 11.819 0 0 1 198.4 31.825 Q 196.6 33.1 194.45 33.1 A 5.508 5.508 0 0 1 193.544 33.031 Q 193.064 32.951 192.69 32.777 A 2.174 2.174 0 0 1 191.9 32.175 A 3.272 3.272 0 0 1 191.247 30.774 A 4.659 4.659 0 0 1 191.15 29.8 A 8.192 8.192 0 0 1 191.268 28.463 A 12.058 12.058 0 0 1 191.327 28.138 M 201.15 13.1 Q 200.25 14.35 199.275 15.95 Q 198.3 17.55 197.4 19.175 A 97.266 97.266 0 0 0 196.66 20.535 Q 196.327 21.16 196.038 21.728 A 57.195 57.195 0 0 0 195.85 22.1 A 32.536 32.536 0 0 0 198.442 20.405 A 39.922 39.922 0 0 0 200.025 19.2 Q 202.15 17.5 204.1 15.525 A 44.333 44.333 0 0 0 207.449 11.734 A 40.798 40.798 0 0 0 207.65 11.475 Q 209.25 9.4 210.3 7.55 Q 211.222 5.936 211.436 4.913 A 2.775 2.775 0 0 0 211.5 4.35 Q 211.5 3.627 210.921 3.519 A 1.207 1.207 0 0 0 210.7 3.5 Q 209.774 3.5 208.744 4.17 A 7.049 7.049 0 0 0 208.125 4.625 A 18.094 18.094 0 0 0 206.586 6.049 A 23.494 23.494 0 0 0 205.4 7.375 A 57.365 57.365 0 0 0 203.502 9.784 A 50.286 50.286 0 0 0 202.925 10.575 Q 202.064 11.781 201.481 12.62 A 85.217 85.217 0 0 0 201.15 13.1 Z" id="7" vector-effect="non-scaling-stroke"/><path d="M 212.482 33.905 A 5.61 5.61 0 0 0 213.55 34 Q 213.8 34 214.1 33.975 Q 214.4 33.95 214.75 33.9 A 9.204 9.204 0 0 0 215.791 33.606 A 7.071 7.071 0 0 0 217.1 33 Q 219.1 32.65 221 31.9 Q 221.98 31.513 222.8 31.073 A 11.915 11.915 0 0 0 224.2 30.2 A 16.484 16.484 0 0 0 224.732 29.783 Q 225.137 29.452 225.586 29.049 A 36.661 36.661 0 0 0 226.525 28.175 A 25.523 25.523 0 0 0 227.126 27.578 Q 228.029 26.649 228.6 25.85 A 1.04 1.04 0 0 0 228.806 25.453 A 1.338 1.338 0 0 0 228.85 25.1 A 1.303 1.303 0 0 0 228.841 24.949 A 0.99 0.99 0 0 0 228.625 24.425 Q 228.4 24.15 228.15 24.15 A 0.599 0.599 0 0 0 227.829 24.238 A 0.703 0.703 0 0 0 227.65 24.4 Q 226.9 25.2 226.05 26.15 Q 225.2 27.1 224.2 27.95 A 12.342 12.342 0 0 1 223.166 28.785 A 15.797 15.797 0 0 1 221.7 29.725 A 21.895 21.895 0 0 1 220.582 30.32 A 17.535 17.535 0 0 1 218.9 31.05 A 7.115 7.115 0 0 0 219.164 30.535 A 7.756 7.756 0 0 0 219.775 28.5 Q 220 27.1 220 25.7 A 23.386 23.386 0 0 0 219.998 25.428 A 20.328 20.328 0 0 0 219.975 24.65 Q 219.95 24.15 219.9 23.65 A 10.953 10.953 0 0 0 219.866 23.191 Q 219.777 22.23 219.5 20.625 A 25.463 25.463 0 0 1 219.381 19.87 A 22.528 22.528 0 0 1 219.15 16.7 A 35.24 35.24 0 0 0 219.625 16.019 A 28.237 28.237 0 0 0 220.05 15.375 Q 220.45 14.75 220.8 14.2 Q 221.55 12.85 221.55 12.15 Q 221.55 11.2 220.65 11.2 Q 219.9 11.2 218.925 12.025 A 3.407 3.407 0 0 0 218.869 12.073 Q 218.31 12.567 217.964 13.31 A 5.382 5.382 0 0 0 217.6 14.4 Q 217.5 14.85 217.45 15.325 Q 217.4 15.8 217.35 16.3 A 132.679 132.679 0 0 1 216.2 17.844 A 161.446 161.446 0 0 1 214.95 19.475 A 123.058 123.058 0 0 1 214.625 19.891 A 111.755 111.755 0 0 1 212.375 22.675 A 113.588 113.588 0 0 1 211.605 23.587 Q 211.233 24.022 210.889 24.415 A 64.383 64.383 0 0 1 210.1 25.3 A 136.158 136.158 0 0 1 209.945 25.47 Q 209.064 26.436 208.65 26.85 A 1.193 1.193 0 0 0 208.597 26.898 A 0.939 0.939 0 0 0 208.3 27.6 A 0.884 0.884 0 0 0 208.361 27.926 A 0.973 0.973 0 0 0 208.55 28.225 A 1.036 1.036 0 0 0 208.578 28.254 A 0.776 0.776 0 0 0 209.15 28.5 A 0.886 0.886 0 0 0 209.169 28.5 A 0.675 0.675 0 0 0 209.65 28.3 A 11.762 11.762 0 0 0 209.733 28.226 Q 210.322 27.692 211.077 26.869 A 41.573 41.573 0 0 0 211.85 26 Q 213.15 24.5 214.65 22.675 Q 216.15 20.85 217.5 19.05 Q 217.7 20.7 217.95 22.35 Q 218.2 24 218.2 25.6 Q 218.2 26.7 218.05 27.75 Q 217.85 28.85 217.45 30.05 Q 217.166 30.903 216.856 31.2 A 0.547 0.547 0 0 1 216.6 31.35 A 15.765 15.765 0 0 1 216.165 31.325 A 17.702 17.702 0 0 1 214.225 31.075 Q 213 30.85 211.95 30.35 Q 211.781 30.266 211.628 30.213 A 1.763 1.763 0 0 0 211.4 30.15 Q 211.15 30.1 210.9 30.1 A 1.621 1.621 0 0 0 210.493 30.147 Q 209.8 30.327 209.8 31.2 Q 209.8 31.811 210.291 32.487 A 4.933 4.933 0 0 0 210.75 33.025 Q 211.403 33.695 212.482 33.905 Z" id="8" vector-effect="non-scaling-stroke"/><path d="M 229.285 31.744 A 1.832 1.832 0 0 0 229.75 31.8 A 3.394 3.394 0 0 0 230.025 31.789 Q 230.812 31.725 231.725 31.3 A 13.826 13.826 0 0 0 232.244 31.046 Q 232.965 30.673 233.45 30.3 A 16.484 16.484 0 0 0 233.982 29.883 Q 234.387 29.552 234.836 29.149 A 36.661 36.661 0 0 0 235.775 28.275 A 25.523 25.523 0 0 0 236.376 27.678 Q 237.279 26.749 237.85 25.95 A 1.04 1.04 0 0 0 238.056 25.553 A 1.338 1.338 0 0 0 238.1 25.2 A 1.303 1.303 0 0 0 238.091 25.049 A 0.99 0.99 0 0 0 237.875 24.525 Q 237.65 24.25 237.4 24.25 A 0.599 0.599 0 0 0 237.079 24.338 A 0.703 0.703 0 0 0 236.9 24.5 Q 236 25.5 234.925 26.625 Q 233.85 27.75 232.6 28.75 A 135.253 135.253 0 0 0 232.5 28.822 Q 232.346 28.932 232.175 29.055 A 234.899 234.899 0 0 0 231.8 29.325 A 2.43 2.43 0 0 1 231.551 29.484 Q 231.25 29.65 231 29.65 Q 230.6 29.65 230.6 29.1 A 1.128 1.128 0 0 1 230.607 28.984 Q 230.632 28.745 230.75 28.35 A 9.178 9.178 0 0 1 230.773 28.281 Q 230.943 27.786 231.236 27.106 A 33.585 33.585 0 0 1 231.55 26.4 Q 231.834 25.781 232.091 25.229 A 158.839 158.839 0 0 1 232.55 24.25 Q 232.8 23.7 233.3 22.875 Q 233.8 22.05 234.325 21.275 Q 234.85 20.5 235.2 20.15 A 1.244 1.244 0 0 0 235.279 20.064 Q 235.45 19.857 235.45 19.65 A 0.533 0.533 0 0 0 235.308 19.285 A 0.819 0.819 0 0 0 235.15 19.15 A 1.152 1.152 0 0 0 234.841 19.005 A 1.351 1.351 0 0 0 234.45 18.95 A 1.423 1.423 0 0 0 234.434 18.95 A 1.156 1.156 0 0 0 233.6 19.3 A 8.481 8.481 0 0 0 233.197 19.707 Q 232.533 20.422 231.825 21.475 A 23.302 23.302 0 0 0 231.37 22.178 A 26.59 26.59 0 0 0 230.1 24.475 A 27.22 27.22 0 0 0 229.542 25.68 A 22.685 22.685 0 0 0 228.8 27.625 A 13.372 13.372 0 0 0 228.558 28.447 Q 228.432 28.935 228.367 29.365 A 5.656 5.656 0 0 0 228.3 30.2 A 2.912 2.912 0 0 0 228.326 30.602 Q 228.357 30.827 228.427 31.006 A 1.113 1.113 0 0 0 228.7 31.425 A 1.334 1.334 0 0 0 229.285 31.744 Z M 236.112 16.408 A 1.559 1.559 0 0 0 237.15 16.8 Q 237.8 16.8 238.275 16.375 A 1.406 1.406 0 0 0 238.631 15.894 A 1.453 1.453 0 0 0 238.75 15.3 A 2.041 2.041 0 0 0 238.743 15.129 A 1.518 1.518 0 0 0 238.3 14.15 Q 237.85 13.7 237.15 13.7 A 1.862 1.862 0 0 0 237.13 13.7 A 1.494 1.494 0 0 0 236.05 14.15 Q 235.6 14.6 235.6 15.3 Q 235.6 15.95 236.075 16.375 A 1.996 1.996 0 0 0 236.112 16.408 Z" id="9" vector-effect="non-scaling-stroke"/><path d="M 251.321 24.379 A 0.703 0.703 0 0 0 251.2 24.5 Q 250.45 25.3 249.6 26.25 Q 248.75 27.2 247.75 28.05 A 18.303 18.303 0 0 1 246.365 29.125 A 14.423 14.423 0 0 1 244.325 30.325 A 16.048 16.048 0 0 1 243.569 30.664 Q 242.818 30.977 242.28 31.088 A 2.648 2.648 0 0 1 241.75 31.15 Q 240.7 31.15 240.7 29.9 A 3.394 3.394 0 0 1 240.701 29.801 Q 240.722 29.107 241.023 28.173 A 12.411 12.411 0 0 1 241.375 27.225 A 29.095 29.095 0 0 1 241.923 25.989 A 35.361 35.361 0 0 1 243.025 23.85 Q 244 22.1 244.875 20.65 A 112.144 112.144 0 0 1 244.94 20.543 Q 245.552 19.531 245.948 18.925 A 17.523 17.523 0 0 1 246.2 18.55 L 246.65 17.85 L 252.65 17.85 A 1.386 1.386 0 0 0 252.715 17.849 Q 252.848 17.842 252.958 17.81 A 0.631 0.631 0 0 0 253.3 17.575 Q 253.5 17.3 253.5 16.95 A 0.89 0.89 0 0 0 253.444 16.638 A 1.095 1.095 0 0 0 253.3 16.375 A 0.602 0.602 0 0 0 253.153 16.232 Q 253.044 16.157 252.895 16.124 A 1.156 1.156 0 0 0 252.65 16.1 L 247.85 16.1 A 1099.202 1099.202 0 0 0 248.444 15.283 A 973.771 973.771 0 0 0 250.15 12.925 A 177.166 177.166 0 0 1 250.808 12.018 Q 251.123 11.588 251.408 11.204 A 88.917 88.917 0 0 1 252.05 10.35 A 1537.286 1537.286 0 0 0 252.267 10.065 Q 252.739 9.445 252.921 9.205 A 33.673 33.673 0 0 0 253 9.1 Q 253.129 8.894 253.191 8.701 A 1.137 1.137 0 0 0 253.25 8.35 A 1.255 1.255 0 0 0 253.188 7.958 A 1.375 1.375 0 0 0 252.95 7.525 Q 252.65 7.15 252.25 7.15 A 0.606 0.606 0 0 0 252.127 7.163 Q 252.048 7.179 251.962 7.216 A 1.34 1.34 0 0 0 251.8 7.3 A 8.072 8.072 0 0 0 250.994 7.914 A 8.832 8.832 0 0 0 249.275 9.95 Q 248.25 11.6 247.55 13.4 Q 247.1 14.05 246.65 14.725 Q 246.2 15.4 245.65 16.1 L 242.6 16.1 A 1.054 1.054 0 0 0 242.479 16.107 A 0.734 0.734 0 0 0 241.975 16.375 A 1.144 1.144 0 0 0 241.859 16.545 A 0.826 0.826 0 0 0 241.75 16.95 Q 241.75 17.3 241.975 17.575 A 0.715 0.715 0 0 0 242.326 17.812 A 0.932 0.932 0 0 0 242.6 17.85 L 244.4 17.85 Q 242.8 20.2 241.275 22.75 Q 240.465 24.105 239.873 25.361 A 20.762 20.762 0 0 0 239 27.5 A 11.821 11.821 0 0 0 238.873 27.891 Q 238.696 28.469 238.603 28.996 A 6.372 6.372 0 0 0 238.5 30.1 Q 238.5 32.238 240.162 32.714 A 3.959 3.959 0 0 0 241.25 32.85 A 5.319 5.319 0 0 0 241.655 32.834 Q 242.554 32.765 243.65 32.4 Q 245.85 31.7 247.75 30.3 A 16.484 16.484 0 0 0 248.282 29.883 Q 248.687 29.552 249.136 29.149 A 36.661 36.661 0 0 0 250.075 28.275 A 25.523 25.523 0 0 0 250.24 28.115" id="10" vector-effect="non-scaling-stroke"/><path d="M 250.24 28.115 A 7.705 7.705 0 0 0 250.2 28.85 A 9.943 9.943 0 0 0 250.201 29.02 Q 250.239 31.235 251.275 32.15 Q 252.35 33.1 253.9 33.1 A 7.791 7.791 0 0 0 254.823 33.044 A 9.091 9.091 0 0 0 256.575 32.65 Q 257.95 32.2 259.2 31.55 A 17.694 17.694 0 0 0 259.637 31.315 Q 260.595 30.783 261.25 30.25 Q 262.7 29.15 263.875 27.875 A 61.215 61.215 0 0 0 264.405 27.292 Q 265.238 26.366 265.85 25.6 A 1.507 1.507 0 0 0 266.007 25.327 A 1.061 1.061 0 0 0 266.1 24.9 A 1.303 1.303 0 0 0 266.091 24.749 A 0.99 0.99 0 0 0 265.875 24.225 A 0.925 0.925 0 0 0 265.762 24.108 A 0.617 0.617 0 0 0 265.35 23.95 Q 265.144 23.95 264.961 24.092 A 1.05 1.05 0 0 0 264.8 24.25 A 30.01 30.01 0 0 1 264.044 25.181 A 39.976 39.976 0 0 1 263.175 26.175 Q 262.25 27.2 261.25 28.05 A 6.897 6.897 0 0 1 261.019 28.252 Q 260.609 28.595 259.984 29.03 A 29.163 29.163 0 0 1 259.4 29.425 Q 258.15 30.25 256.725 30.85 A 10.003 10.003 0 0 1 256.317 31.012 Q 255.761 31.218 255.249 31.327 A 5.271 5.271 0 0 1 254.15 31.45 A 2.884 2.884 0 0 1 253.833 31.433 A 2.156 2.156 0 0 1 252.575 30.875 Q 252.115 30.452 251.993 29.554 A 5.274 5.274 0 0 1 251.95 28.85 A 6.279 6.279 0 0 1 251.998 28.087 A 7.803 7.803 0 0 1 252.2 27.05 Q 252.45 26.1 252.85 25.1 A 2.243 2.243 0 0 0 254.084 25.859 A 3.422 3.422 0 0 0 254.9 25.95 Q 256.55 25.95 258.225 24.95 Q 259.9 23.95 261 22.35 A 7.088 7.088 0 0 0 261.482 21.542 A 5.45 5.45 0 0 0 262.1 19.05 A 4.156 4.156 0 0 0 262.064 18.491 A 3.186 3.186 0 0 0 261.525 17.075 A 1.826 1.826 0 0 0 260.508 16.343 A 2.538 2.538 0 0 0 259.8 16.25 A 4.932 4.932 0 0 0 257.685 16.742 A 7.072 7.072 0 0 0 256.35 17.575 A 13.442 13.442 0 0 0 254.994 18.792 A 16.386 16.386 0 0 0 253.25 20.925 A 21.999 21.999 0 0 0 252.993 21.306 A 19.634 19.634 0 0 0 251.321 24.379 M 254.8 24.35 A 3.597 3.597 0 0 0 255.776 24.207 Q 256.198 24.088 256.647 23.871 A 6.921 6.921 0 0 0 256.975 23.7 A 7.618 7.618 0 0 0 259.017 22.042 A 8.568 8.568 0 0 0 259.075 21.975 Q 260 20.9 260.3 19.65 A 0.441 0.441 0 0 0 260.336 19.545 Q 260.35 19.48 260.35 19.4 L 260.35 19.15 A 1.835 1.835 0 0 0 260.324 18.827 Q 260.223 18.264 259.725 18.25 A 0.912 0.912 0 0 0 259.7 18.25 A 3.237 3.237 0 0 0 258.599 18.453 Q 258.179 18.604 257.745 18.868 A 6.177 6.177 0 0 0 257.5 19.025 Q 256.35 19.8 255.325 21.075 Q 254.3 22.35 253.5 23.85 A 5.751 5.751 0 0 0 253.875 24.109 A 5.278 5.278 0 0 0 253.9 24.125 Q 254.1 24.25 254.3 24.3 A 0.441 0.441 0 0 0 254.405 24.336 Q 254.47 24.35 254.55 24.35 L 254.8 24.35 Z" id="11" vector-effect="non-scaling-stroke"/></g></svg>